<svg width="80" height="101" viewBox="0 0 80 101" fill="none" xmlns="http://www.w3.org/2000/svg">
<path d="M39.6553 100.055C-0.000137177 81.1112 4.16349e-10 46.3129 0 18.8975L39.6553 0L39.6553 100.055ZM79.3115 18.8975C79.3115 46.3129 79.3117 81.1112 39.6562 100.055L39.6562 0L79.3115 18.8975Z" fill="#CED4DC"/>
<path d="M39.656 3.53253L76.5105 21.095C76.5105 46.5745 76.5105 78.9161 39.6551 96.5218V96.5198C2.80089 78.914 2.80057 46.5742 2.80057 21.095L39.6551 3.53253H39.656Z" fill="#FF5500"/>
<path d="M73.7478 23.2649C73.7478 46.8338 73.7478 76.7498 39.6559 93.0354C5.56397 76.7498 5.56393 46.8338 5.56393 23.2649L39.6559 7.01898L73.7478 23.2649Z" stroke="#CED4DC" stroke-width="1.17928"/>
<path d="M40.2635 93.1742C62.7178 82.4479 70.3827 65.8086 72.9993 48.9644L40.2635 48.9644L40.2635 93.1742Z" fill="#CED4DC"/>
<path d="M39.656 48.8255L6.92023 48.8255C5.56412 40.0955 5.56393 31.3103 5.56393 23.2648L39.656 7.01898L39.656 48.8255Z" fill="#CED4DC"/>
<path d="M21.4582 42.1688H13.7738V41.3457H16.283L16.283 23.9975H13.7738V23.1744H21.4582V23.9975H18.9804V31.9119H28.6094V23.9975H26.1002V23.1744H33.7847V23.9975H31.3068L31.3068 41.3457H32.9692C33.0737 41.3457 33.1783 41.3563 33.2828 41.3774C33.6174 41.4407 33.7847 41.7045 33.7847 42.1688H26.1002V41.3457H28.6094L28.6094 32.8299H18.9804L18.9804 41.3457H20.6427C20.7473 41.3457 20.8518 41.3563 20.9564 41.3774C21.2909 41.4407 21.4582 41.7045 21.4582 42.1688Z" fill="#FF5500"/>
<path d="M60.4094 69.3225C60.4094 70.6099 59.9598 71.7179 59.0607 72.6465C57.7433 73.955 55.8823 74.6092 53.4777 74.6092C51.4285 74.6092 49.5989 74.0711 47.9888 72.9947C47.9888 73.4379 47.9679 73.7439 47.9261 73.9128C47.8424 74.2082 47.5497 74.356 47.0479 74.356V67.8029H47.9888C48.3443 71.7073 50.1216 73.6806 53.3209 73.7228C54.1364 73.7228 54.8787 73.5751 55.5478 73.2796C56.9697 72.6254 57.6806 71.5596 57.6806 70.0822C57.6806 69.5124 57.5447 68.9848 57.2729 68.4994C56.771 67.6341 55.5791 66.7793 53.6972 65.9351C51.669 65.0487 50.4771 64.5105 50.1216 64.3206C48.1561 63.202 47.1733 61.7564 47.1733 59.9835C47.1733 58.8017 47.5915 57.7675 48.4279 56.8811C49.6825 55.6148 51.439 54.9817 53.6972 54.9817C55.5582 54.9817 57.231 55.3932 58.7157 56.2163C58.7157 55.9631 58.7366 55.7626 58.7784 55.6148C58.862 55.2983 59.1548 55.14 59.6566 55.14V60.68H58.7157C58.7366 59.4981 58.4438 58.4957 57.8374 57.6726C56.9174 56.4696 55.5791 55.8681 53.8227 55.8681C53.1118 55.8681 52.4636 55.9842 51.8781 56.2163C50.5189 56.7651 49.8393 57.7464 49.8393 59.1605C49.8393 59.6881 49.9648 60.184 50.2157 60.6484C50.6967 61.4925 51.8676 62.3156 53.7286 63.1176C55.7778 64.0251 57.001 64.5844 57.3983 64.7955C59.4057 65.9351 60.4094 67.4441 60.4094 69.3225Z" fill="#FF5500"/>
</svg>
