<svg width="719" height="755" viewBox="0 0 719 755" fill="none" xmlns="http://www.w3.org/2000/svg">
<rect y="65.0188" width="386" height="549" rx="25" transform="rotate(-9.69727 0 65.0188)" fill="#434343"/>
<path d="M221.074 216.951C227.204 219.564 245.496 238.773 254.779 245.086C280.638 262.667 348.684 304.756 313.895 348.815C298.716 368.041 272.07 365.417 251.607 349.083C261.573 373.388 266.17 381.079 283.446 398.028L254.025 402.96L223.591 408.261C233.404 386.709 235.435 377.005 236.879 351.585C222.428 374.256 194.131 388.83 171.762 367.343C136.294 333.276 182.68 278.339 198.946 254.094C206.693 242.548 213.921 230.152 221.074 216.951Z" fill="#FEFEFD"/>
<rect x="341.171" y="140" width="385.19" height="549" rx="18.2962" transform="rotate(11.47 341.171 140)" fill="#202020"/>
<path d="M400.887 176.981L504.735 197.987C506.552 200.398 508.427 202.74 510.353 205.009C509.379 205.491 506.576 206.991 505.728 206.922C502.382 206.651 498.756 205.77 495.46 205.094L475.754 201.043L406.518 187.019C395.866 213.593 371.666 222.459 351.018 221.763L342.45 264.005L316.734 390.834C314.836 392.404 312.931 393.95 311.016 395.479L307.78 389.917C311.411 371.044 315.496 351.735 319.319 332.87L343.747 212.71C365.341 216.235 392.968 208.494 400.887 176.981Z" fill="#CED4DC"/>
<path d="M547.985 206.667C558.379 208.18 572.047 211.489 582.57 213.623L651.613 227.636C647.343 259.946 667.811 277.805 689.888 282.689L654.078 459.615L649.114 463.329L645.604 457.279C649.321 437.744 653.583 417.656 657.552 398.108L679.857 288.296C660.002 281.016 642.398 263.586 642.548 234.746L543.454 214.61L540.224 210.526C542.794 209.171 545.382 207.884 547.985 206.667Z" fill="#CED4DC"/>
<path d="M641.523 499.435C642.751 500.331 644.052 503.569 644.822 505.231C640.619 524.83 636.676 545.193 632.684 564.899L610.107 676.207C592.392 672.925 572.814 677.377 559.073 696.091C554.227 702.692 552.536 708.478 550.381 716.612L449.4 696.054C447.673 695.749 444.619 691.7 443.288 690.124C445.256 689.104 447.467 688.114 449.469 687.166C459.997 689.52 471.044 691.555 481.642 693.705L544.698 706.537C553.439 678.095 581.834 665.802 602.83 667.111C607.014 648.22 610.826 628.188 614.689 609.152L636.04 503.871C637.993 502.122 639.464 500.975 641.523 499.435Z" fill="#CED4DC"/>
<path d="M304.02 430.953C305.238 431.995 306.771 435.465 307.612 437.168C303.955 454.288 300.528 472.009 297.035 489.207L274.431 600.447C294.577 605.405 315.512 631.099 312.903 659.63L408.537 678.952C409.937 680.607 411.389 682.242 412.811 683.871L409.753 685.4C408.635 685.949 407.301 686.733 406.177 687.352L303.878 666.572C304.47 662.539 305.034 658.771 304.942 654.747C304.278 625.789 284.231 610.478 264.214 606.01L298.901 435.144L304.02 430.953Z" fill="#CED4DC"/>
<path d="M266.319 625.201C270.545 625.64 272.876 626.75 274.926 631.462C277.709 629.163 280.61 627.897 283.539 628.676C292.848 631.16 292.339 641.297 283.705 646.781C282.248 647.707 280.132 649.279 278.695 650.269L270.025 656.714C265.642 649.131 248.764 629.037 266.319 625.201Z" fill="#CED4DC"/>
<path d="M369.488 174.183C369.992 173.741 370.505 173.314 371.023 172.903C376.206 168.83 386.234 171.853 384.076 181.019C382.903 186.005 376.857 189.597 373.282 192.128L364.696 198.936C360.506 191.689 344.381 170.291 361.209 167.835C361.67 167.881 362.128 167.942 362.584 168.018C366.259 168.658 367.626 170.656 369.488 174.183Z" fill="#CED4DC"/>
<path d="M590.989 688.71C593.611 693.809 601.792 705.391 601.574 710.127C601.136 719.592 592.234 719.015 587.934 713.155C588.341 717.413 588.799 718.355 590.259 722.015L585.523 721.107L578.493 719.613C579.831 718.449 583.712 715.14 583.437 713.024C574.877 717.605 568.394 707.717 574.906 701.225C578.412 697.73 586.657 692.443 590.989 688.71Z" fill="#CED4DC"/>
<path d="M683.944 232.467C686.702 237.862 702.268 257.437 686.961 258.708C684.41 258.92 682.256 256.51 680.659 254.403C680.988 258.662 681.063 259.815 682.692 263.417L677.811 262.42L672.814 261.456C672.904 261.371 672.997 261.286 673.087 261.201L673.537 260.768C676.117 258.303 676.742 257.091 678.421 253.747C673.386 256.81 666.516 255.937 666.684 248.739C666.808 243.574 680.21 235.698 683.476 232.874L683.944 232.467Z" fill="#CED4DC"/>
<path d="M309.366 404.603C310.518 405.764 314.972 412.905 316.398 414.947C312.946 417.327 309.482 419.677 306.006 421.992C304.798 420.852 300.247 413.442 298.966 411.46C302.185 409.524 306.118 406.75 309.366 404.603Z" fill="#CED4DC"/>
<path d="M647.216 473.155C648.368 474.316 652.822 481.457 654.248 483.499C650.796 485.879 647.332 488.229 643.856 490.544C642.648 489.404 638.097 481.994 636.815 480.012C640.035 478.076 643.968 475.302 647.216 473.155Z" fill="#CED4DC"/>
<path d="M429.197 678.123C430.348 679.285 434.802 686.425 436.229 688.467C432.777 690.847 429.312 693.197 425.837 695.512C424.628 694.372 420.077 686.962 418.796 684.98C422.015 683.044 425.949 680.27 429.197 678.123Z" fill="#CED4DC"/>
<path d="M526.598 198.093C527.75 199.254 532.204 206.395 533.63 208.437C530.178 210.817 526.714 213.167 523.238 215.482C522.03 214.342 517.479 206.932 516.197 204.95C519.417 203.014 523.35 200.24 526.598 198.093Z" fill="#CED4DC"/>
<path d="M451.27 565.914C366.008 501.856 382.747 419.36 395.935 354.366L499.399 328.717L451.27 565.914ZM584.684 392.665C571.496 457.658 554.757 540.154 451.271 565.914L499.4 328.717L584.684 392.665Z" fill="#CED4DC"/>
<path d="M497.701 337.091L576.961 396.524C564.704 456.927 549.148 533.596 452.971 557.537L452.97 557.537C373.73 498.003 389.287 421.334 401.543 360.93L497.7 337.091L497.701 337.091Z" fill="#202020"/>
<path d="M569.341 400.333C558.004 456.207 543.614 527.129 454.647 549.274C381.348 494.204 395.738 423.282 407.076 367.408L496.023 345.357L569.341 400.333Z" stroke="#CED4DC" stroke-width="1.60753"/>
<path d="M456.026 549.896C514.623 535.31 540.868 499.565 555.198 460.896L477.292 445.089L456.026 549.896Z" fill="#CED4DC"/>
<path d="M475.913 444.467L398.008 428.659C398.98 407.308 403.205 386.481 407.076 367.408L496.023 345.357L475.913 444.467Z" fill="#CED4DC"/>
<path d="M435.808 419.898L417.52 416.188L417.916 414.236L423.887 415.448L432.232 374.321L426.261 373.109L426.657 371.158L444.944 374.869L444.549 376.82L438.652 375.623L434.845 394.386L457.76 399.036L461.567 380.273L455.596 379.062L455.992 377.11L474.279 380.821L473.883 382.772L467.987 381.576L459.642 422.703L463.598 423.506C463.847 423.556 464.09 423.632 464.329 423.732C465.095 424.044 465.366 424.75 465.143 425.851L446.855 422.14L447.251 420.189L453.222 421.4L457.319 401.212L434.403 396.562L430.307 416.751L434.263 417.553C434.512 417.604 434.755 417.679 434.994 417.78C435.76 418.091 436.031 418.798 435.808 419.898Z" fill="#202020"/>
<path d="M515.443 503.08C514.824 506.132 513.221 508.541 510.635 510.309C506.87 512.775 502.127 513.427 496.404 512.266C491.527 511.276 487.432 509.117 484.118 505.788C483.905 506.839 483.708 507.554 483.527 507.934C483.186 508.594 482.418 508.803 481.224 508.561L484.376 493.025L486.615 493.48C485.583 502.908 488.864 508.444 496.457 510.089C498.398 510.483 500.235 510.491 501.97 510.113C505.669 509.249 507.873 507.066 508.584 503.563C508.858 502.212 508.788 500.896 508.375 499.614C507.597 497.32 505.171 494.718 501.099 491.808C496.698 488.728 494.121 486.876 493.366 486.254C489.227 482.653 487.583 478.752 488.436 474.549C489.005 471.747 490.497 469.497 492.914 467.8C496.509 465.404 500.994 464.751 506.368 465.841C510.797 466.74 514.58 468.523 517.717 471.191C517.839 470.591 517.985 470.126 518.156 469.796C518.507 469.086 519.28 468.852 520.474 469.094L517.809 482.228L515.57 481.773C516.188 478.982 515.974 476.464 514.926 474.22C513.316 470.924 510.42 468.851 506.24 468.003C504.548 467.66 502.95 467.622 501.445 467.89C497.946 468.534 495.857 470.533 495.177 473.885C494.923 475.136 494.983 476.372 495.357 477.594C496.095 479.827 498.486 482.344 502.529 485.144C506.969 488.285 509.611 490.202 510.455 490.894C514.684 494.565 516.347 498.627 515.443 503.08Z" fill="#202020"/>
<path d="M456.439 482.586L435.435 502.789L423.966 475.997L445.01 455.6L456.439 482.586Z" fill="#CED4DC"/>
<path d="M518.285 424.685C516.669 425.97 514.695 426.728 512.63 426.855C510.566 426.982 508.511 426.473 506.745 425.397C504.979 424.321 503.587 422.729 502.759 420.839C501.931 418.949 501.707 416.851 502.117 414.832C503.03 410.329 506.835 408.083 511.908 405.089C516.334 402.475 521.727 399.291 527.001 393.542C529.617 400.892 533.343 405.926 536.4 410.058C539.904 414.793 542.533 418.344 541.619 422.847C541.209 424.867 540.185 426.711 538.686 428.129C537.186 429.547 535.285 430.47 533.239 430.773C531.193 431.076 529.102 430.744 527.251 429.822C525.399 428.9 523.876 427.432 522.889 425.619C523.572 428.717 524.51 431.753 525.695 434.696C526.147 435.812 525.156 437.065 523.976 436.826L512.916 434.582C511.733 434.342 511.309 432.801 512.163 431.95C514.402 429.701 516.449 427.271 518.285 424.685Z" fill="#CED4DC"/>
<path d="M448.263 211.66C460.443 217.803 475.501 221.944 488.681 225.651C496.514 227.855 503.105 229.38 511.151 228.15C506.839 221.035 498.711 215.412 490.442 212.991C489.734 212.784 488.632 212.421 487.983 212.126L478.662 210.234C476.127 210.156 473.426 209.72 470.926 209.606C464.276 209.303 454.583 209.926 448.263 211.66Z" fill="#CED4DC"/>
<path d="M530.15 231.973C535.183 235.294 540.131 236.655 546.121 237.542C561.454 239.811 579.117 242.298 594.514 241.329C588.258 237.007 582.874 233.906 575.592 231.051C573.229 230.123 568.852 228.972 567.02 228.163L557.601 226.251C554.782 226.179 551.98 225.815 549.157 225.875C543.157 226.006 534.529 228.471 530.15 231.973Z" fill="#CED4DC"/>
<path d="M622.423 342.145C624.502 317.225 614.542 290.71 596.477 271.047C583.57 256.807 566.755 245.857 547.844 239.378C539.729 236.557 532.059 234.73 524.716 229.914C526.36 229.472 528.227 229.009 529.818 228.481L528.545 225.609C526.119 226.373 523.65 227.033 521.147 227.588C519.041 226.111 517.016 224.54 515.081 222.881L512.765 225.032C514.13 226.157 515.516 227.26 516.924 228.339C503.977 230.208 494.661 227.583 481.8 227.727C446.988 228.215 415.197 243.597 396.095 269.196C390.083 277.162 386.634 284.11 383.295 293.258L383.633 293.382C386.193 286.563 389.645 280.074 393.918 274.05C412.847 247.053 445.639 230.742 481.667 230.401C485.507 230.404 489.352 230.569 493.19 230.897C503.699 231.818 509.736 232.633 520.467 230.815C525.986 234.409 531.623 237.062 537.959 239.142C541.17 240.196 544.397 241.107 547.601 242.207C564.501 247.952 579.742 257.335 591.955 269.518C612.203 289.497 623.064 315.648 622.102 342.102L622.423 342.145Z" fill="#CED4DC"/>
<path d="M627.62 281.138C627.817 281.208 627.709 281.193 627.955 281.106C627.691 280.247 625.998 277.901 625.385 276.948C616.846 263.67 595.261 246.267 577.671 249.814C576.449 250.129 575.556 250.49 574.394 250.94C584.129 259.163 594.496 265.221 606.008 271.219C612.888 274.803 620.315 278.365 627.62 281.138Z" fill="#CED4DC"/>
<path d="M401.667 235.368C404.547 235.636 411.923 235.49 414.849 235.345C430.069 234.585 448.726 233.078 462.93 228.328C462.403 227.739 461.571 227.007 460.971 226.45C456.518 223.071 451.646 221.952 446.035 221.456C430.54 220.084 413.119 226.473 401.667 235.368Z" fill="#CED4DC"/>
<path d="M462.337 252.978C464.034 252.718 470.894 250.765 472.779 250.26C479.744 248.436 486.645 246.437 493.472 244.267C501.507 241.732 508.386 240.443 511.7 232.638C500.565 232.246 490.335 230.643 479.932 235.239C471.586 238.926 465.195 244.921 462.337 252.978Z" fill="#CED4DC"/>
<path d="M565.24 273.81L565.4 273.638C565.778 268.378 564.415 263.535 561.889 258.759C554.647 245.057 542.43 241.043 528.051 236.011C527.687 236.464 527.851 237.286 527.907 237.862C528.562 244.734 534.769 249.168 539.987 253.635C548.184 260.584 556.605 267.312 565.24 273.81Z" fill="#CED4DC"/>
<path d="M372.173 271.454C379.853 268.831 389.39 264.02 396.397 260.309C404.093 256.233 412.165 251.314 418.783 245.921C419.456 245.372 421.175 244.092 421.345 243.406C415.436 241.12 409.207 241.788 403.526 243.807C392.011 247.9 382.606 255.759 376.018 265.065C374.718 266.902 373.058 269.487 372.173 271.454Z" fill="#CED4DC"/>
<path d="M640.972 325.842C641.183 325.757 641.085 325.809 641.221 325.553C640.395 313.627 634.184 299.392 625.218 290.412C619.922 285.106 614.974 281.691 607.139 281.035L606.823 281.092L606.73 281.293C613.492 295.757 629.007 314.406 640.972 325.842Z" fill="#CED4DC"/>
<path d="M429.958 265.8C430.991 265.259 435.397 261.872 436.565 260.994C443.706 255.628 451.077 250.156 457.269 243.888C459.878 241.248 462.264 238.169 463.526 234.775C463.717 234.26 464.029 233.624 463.981 233.091L463.666 232.978C461.605 233.084 459.631 233.226 457.626 233.632C441.468 236.905 429.019 250.536 429.958 265.8Z" fill="#CED4DC"/>
<path d="M590.133 298.288C590.25 298.194 590.305 298.144 590.373 298.01C593.723 291.238 593.685 282.589 591.084 275.483C587.972 266.767 581.15 259.403 572.164 255.059C571.954 254.928 571.928 254.959 571.668 254.962C571.574 255.094 571.509 255.225 571.462 255.379C571.231 256.133 571.335 257.181 571.365 257.972C571.782 268.65 584.051 288.323 590.133 298.288Z" fill="#CED4DC"/>
<path d="M635.719 367.035C635.836 366.969 635.91 366.935 635.956 366.808C641.223 352.538 640.581 326.901 623.763 318.077L623.5 317.976L623.305 318.204C623.193 319.396 623.371 322.216 623.483 323.523C624.706 337.719 629.986 353.714 635.719 367.035Z" fill="#CED4DC"/>
<path d="M361.025 311.321C361.593 311.196 363.885 308.835 364.432 308.279C372.146 300.441 379.508 291.904 385.505 282.888C386.642 281.179 391.995 272.217 391.596 270.88C375.856 272.255 367.599 286.712 363.262 298.97C361.98 302.592 361.402 307.481 361.025 311.321Z" fill="#CED4DC"/>
<path d="M407.014 288.554C407.043 288.526 407.072 288.498 407.101 288.469C412.585 279.771 417.992 270.87 422.203 261.565C424.206 257.138 425.304 252.53 424.834 247.658C423.905 248.074 422.979 248.495 422.058 248.923C415.702 251.746 410.109 258.221 407.42 264.024C403.816 271.805 403.395 280.453 407.014 288.554Z" fill="#CED4DC"/>
<path d="M602.381 328.216C602.428 328.186 602.474 328.156 602.521 328.126C612.349 319.185 614.064 304.421 608.506 292.633C607.212 289.89 605.77 287.862 604.006 285.803C603.436 285.124 602.599 284.267 601.978 283.596C598.086 290.648 598.821 299.153 599.561 306.943C600.289 314.048 601.229 321.141 602.381 328.216Z" fill="#CED4DC"/>
<path d="M395.935 316.09C396.441 314.763 397.401 308.584 397.647 306.915C399.21 296.296 401.609 284.409 396.994 273.953C395.978 274.912 395.3 275.597 394.394 276.64C384.776 287.519 386.073 304.906 395.935 316.09Z" fill="#CED4DC"/>
<path d="M601.907 357.886C606.622 355.894 611.933 351.278 614.507 347.227C619.679 339.089 621.464 331.604 618.775 322.269C618.328 320.94 617.947 319.974 617.38 318.677C608.636 326.798 606.178 340.143 603.405 350.989C602.85 353.158 602.213 355.687 601.907 357.886Z" fill="#CED4DC"/>
<path d="M603.723 392.221C604.199 392.017 605.426 391.169 605.928 390.816C610.372 387.695 613.962 384.011 616.861 379.652C622.476 371.208 625.464 362.93 622.753 352.93C622.411 351.86 622.017 350.927 621.583 349.883C614.312 357.799 610.48 370.123 607.314 379.97C606.122 383.678 604.629 388.475 603.723 392.221Z" fill="#CED4DC"/>
<path d="M380.828 346.951C381.166 346.411 381.719 340.877 381.801 339.828C382.715 328.07 385.325 312.577 380.938 301.059C380.19 301.75 379.457 302.574 378.763 303.319C376.331 306.246 374.618 309.622 373.731 313.236C370.989 324.331 374.029 337.064 380.828 346.951Z" fill="#CED4DC"/>
<path d="M621.852 345.559L622.166 345.985C622.236 345.116 622.473 342.917 622.425 342.145L622.103 342.102C622.054 343.131 622.027 344.587 621.852 345.559Z" fill="#CED4DC"/>
<path d="M382.589 295.316C382.122 296.255 381.345 299.123 381.206 300.147C381.722 298.937 382.068 297.862 382.47 296.617C382.49 296.161 382.49 295.762 382.589 295.316Z" fill="#CED4DC"/>
<path d="M621.851 345.558C621.866 346.803 621.585 347.857 621.685 349.254C621.942 348.278 622.166 346.993 622.166 345.985L621.851 345.558Z" fill="#CED4DC"/>
<path d="M382.589 295.316C382.491 295.762 382.49 296.161 382.47 296.616L383.636 293.381L383.298 293.257C383.082 293.741 382.772 294.777 382.589 295.316Z" fill="#CED4DC"/>
<path d="M356.632 655.805C370.243 654.894 385.724 656.95 399.306 658.673C407.379 659.697 414.043 660.861 420.973 665.13C414.229 670.002 404.552 672.012 395.994 671.019C395.261 670.934 394.104 670.838 393.392 670.857L384.071 668.966C381.705 668.05 379.048 667.399 376.702 666.529C370.46 664.216 361.776 659.864 356.632 655.805Z" fill="#CED4DC"/>
<path d="M439.959 669.014C445.888 667.917 450.975 668.592 456.837 670.11C471.843 673.997 489.077 678.591 502.88 685.485C495.434 687.026 489.267 687.784 481.448 687.575C478.91 687.508 474.43 686.862 472.428 686.894L463.009 684.982C460.385 683.95 457.662 683.193 455.086 682.038C449.611 679.578 442.627 673.945 439.959 669.014Z" fill="#CED4DC"/>
<path d="M567.876 603.519C560.077 627.279 540.571 647.816 516.27 658.882C498.834 666.965 479.08 670.495 459.14 669.091C450.567 668.526 442.791 667.219 434.152 668.792C435.495 669.839 437.033 670.993 438.293 672.1L436.001 674.249C434.064 672.6 432.047 671.029 429.959 669.543C427.444 670.082 424.967 670.74 422.538 671.513L421.244 668.63C422.939 668.126 424.646 667.65 426.363 667.205C415.168 660.438 405.566 659.224 393.779 654.078C361.909 640.061 338.628 613.504 331.015 582.484C328.583 572.805 328.114 565.062 328.606 555.336L328.965 555.354C328.665 562.631 329.315 569.952 330.902 577.166C337.811 609.405 361.652 637.208 394.698 651.564C398.235 653.059 401.841 654.405 405.503 655.599C415.539 658.846 421.416 660.449 430.591 666.306C437.074 665.148 443.299 664.901 449.944 665.455C453.313 665.736 456.64 666.155 460.019 666.391C477.822 667.687 495.514 664.986 511.51 658.528C537.943 648.021 558.139 628.171 567.564 603.434L567.876 603.519Z" fill="#CED4DC"/>
<path d="M548.884 661.728C549.093 661.74 548.987 661.711 549.179 661.888C548.602 662.576 546.128 664.076 545.192 664.714C532.153 673.615 505.492 681.229 490.675 671.106C489.673 670.339 488.992 669.659 488.096 668.792C500.267 665.013 512.175 663.475 525.114 662.439C532.848 661.819 541.075 661.434 548.884 661.728Z" fill="#CED4DC"/>
<path d="M322.961 615.809C325.717 616.685 332.453 619.693 335.091 620.968C348.812 627.6 365.406 636.26 376.634 646.17C375.92 646.507 374.868 646.857 374.099 647.136C368.681 648.512 363.757 647.643 358.398 645.914C343.593 641.137 330.04 628.464 322.961 615.809Z" fill="#CED4DC"/>
<path d="M385.697 623.239C387.158 624.139 392.715 628.612 394.254 629.812C399.957 634.207 405.533 638.736 410.975 643.396C417.386 648.862 423.218 652.731 423.228 661.211C412.821 657.231 402.775 654.72 394.986 646.432C388.738 639.784 385.189 631.772 385.697 623.239Z" fill="#CED4DC"/>
<path d="M488.582 644.163L488.662 644.384C486.96 649.375 483.817 653.304 479.629 656.717C467.619 666.513 454.804 665.447 439.6 664.477C439.441 663.918 439.913 663.225 440.189 662.717C443.471 656.643 450.915 654.979 457.461 652.899C467.719 649.695 478.097 646.781 488.582 644.163Z" fill="#CED4DC"/>
<path d="M309.865 571.081C315.914 576.49 322.822 584.638 327.828 590.786C333.327 597.539 338.844 605.215 342.836 612.762C343.242 613.53 344.326 615.378 344.215 616.076C337.883 615.879 332.407 612.835 327.962 608.761C318.953 600.504 313.355 589.601 310.915 578.462C310.433 576.265 309.913 573.238 309.865 571.081Z" fill="#CED4DC"/>
<path d="M578.604 625.764C578.766 625.924 578.696 625.837 578.721 626.127C573.312 636.787 562.045 647.476 550.287 652.251C543.342 655.073 537.454 656.289 529.983 653.839L529.714 653.665L529.707 653.443C541.572 642.758 563.128 631.632 578.604 625.764Z" fill="#CED4DC"/>
<path d="M360.876 598.811C361.617 599.712 364.354 604.549 365.087 605.812C369.572 613.537 374.228 621.45 377.487 629.635C378.86 633.083 379.858 636.849 379.697 640.466C379.672 641.015 379.712 641.722 379.46 642.194L379.125 642.176C377.269 641.275 375.506 640.375 373.817 639.219C360.214 629.907 354.062 612.502 360.876 598.811Z" fill="#CED4DC"/>
<path d="M521.045 631.323C521.116 631.455 521.148 631.522 521.158 631.673C521.604 639.214 518.197 647.164 513.033 652.694C506.77 659.508 497.617 663.631 487.648 664.129C487.404 664.167 487.392 664.129 487.154 664.025C487.119 663.866 487.109 663.721 487.127 663.561C487.208 662.777 487.712 661.852 488.048 661.135C492.594 651.464 511.561 638.129 521.045 631.323Z" fill="#CED4DC"/>
<path d="M589.823 585.78C589.904 585.887 589.959 585.948 589.952 586.082C589.24 601.276 578.657 624.635 559.73 626.207L559.448 626.197L559.357 625.911C559.719 624.77 560.982 622.242 561.594 621.082C568.254 608.485 579.351 595.813 589.823 585.78Z" fill="#CED4DC"/>
<path d="M315.138 530.022C315.612 530.358 316.802 533.426 317.089 534.152C321.139 544.376 324.59 555.107 326.599 565.748C326.98 567.765 328.417 578.104 327.528 579.18C313.569 571.778 311.6 555.247 312.384 542.268C312.615 538.432 313.988 533.705 315.138 530.022Z" fill="#CED4DC"/>
<path d="M348.616 568.913C348.631 568.95 348.647 568.988 348.662 569.025C350.323 579.173 351.833 589.477 352.084 599.688C352.204 604.545 351.418 609.217 349.086 613.52C348.393 612.776 347.705 612.027 347.023 611.273C342.27 606.197 339.643 598.054 339.429 591.661C339.143 583.091 342.126 574.963 348.616 568.913Z" fill="#CED4DC"/>
<path d="M543.991 608.536C544.022 608.581 544.053 608.627 544.085 608.673C549.65 620.737 545.475 635.002 535.762 643.691C533.501 645.714 531.383 647.019 528.956 648.228C528.166 648.631 527.061 649.094 526.228 649.47C525.393 641.458 529.385 633.912 533.102 627.027C536.542 620.768 540.172 614.602 543.991 608.536Z" fill="#CED4DC"/>
<path d="M349.146 539.238C349.094 540.657 347.57 546.722 347.146 548.354C344.446 558.743 342.023 570.625 333.697 578.455C333.135 577.176 332.778 576.281 332.35 574.967C327.734 561.2 335.705 545.693 349.146 539.238Z" fill="#CED4DC"/>
<path d="M555.119 581.027C558.685 584.7 561.776 591.02 562.568 595.754C564.158 605.265 562.885 612.854 556.771 620.402C555.841 621.452 555.113 622.193 554.085 623.166C549.198 612.279 552.136 599.032 553.81 587.963C554.144 585.749 554.544 583.171 555.119 581.027Z" fill="#CED4DC"/>
<path d="M570.173 550.115C570.531 550.489 571.331 551.748 571.656 552.269C574.532 556.875 576.402 561.667 577.373 566.812C579.253 576.776 578.778 585.564 572.383 593.716C571.651 594.568 570.925 595.274 570.118 596.067C566.508 585.943 567.782 573.1 568.705 562.797C569.053 558.918 569.547 553.918 570.173 550.115Z" fill="#CED4DC"/>
<path d="M347.262 504.929C347.362 505.558 345.715 510.871 345.381 511.868C341.641 523.052 338.005 538.337 329.476 547.235C329.056 546.307 328.702 545.262 328.354 544.305C327.255 540.662 326.993 536.885 327.584 533.212C329.384 521.926 337.147 511.384 347.262 504.929Z" fill="#CED4DC"/>
<path d="M568.681 600.153L569.137 599.883C568.862 600.711 568.223 602.828 567.878 603.52L567.566 603.435C567.921 602.468 568.464 601.117 568.681 600.153Z" fill="#CED4DC"/>
<path d="M328.757 553.165C328.693 552.119 329.096 549.175 329.366 548.178C329.37 549.493 329.27 550.619 329.154 551.922C328.995 552.349 328.84 552.717 328.757 553.165Z" fill="#CED4DC"/>
<path d="M568.681 600.153C569.179 599.013 569.331 597.933 569.968 596.686C569.824 597.685 569.529 598.955 569.136 599.884L568.681 600.153Z" fill="#CED4DC"/>
<path d="M328.757 553.166C328.84 552.717 328.995 552.349 329.154 551.922L328.967 555.355L328.607 555.338C328.597 554.808 328.715 553.733 328.757 553.166Z" fill="#CED4DC"/>
</svg>
